<svg id="Layer_2" data-name="Layer 2" xmlns="http://www.w3.org/2000/svg" viewBox="0 0 114.12 46.5"><defs><style>.cls-1,.cls-3{fill:none;stroke:#fff;stroke-linecap:round;stroke-linejoin:round;}.cls-1{stroke-width:0.75px;}.cls-2{fill:#fff;}.cls-3{stroke-width:0.5px;}</style></defs><title>logo</title><ellipse class="cls-1" cx="539.55" cy="620" rx="2.97" ry="1.45" transform="translate(-663.74 351.6) rotate(-71)"/><path class="cls-1" d="M455.43,585.6c1.26.61-13.62,27.72-13.64,34.78,0,7.58,75-73,89.95-31.21" transform="translate(-441.42 -576.72)"/><path class="cls-2" d="M500.76,611.93l.79-.87c.13-.15.21-.33.36-.42s.31-.1.52-.22l0,0a0,0,0,0,1,.05,0,.7.7,0,0,1-.06.76,1.12,1.12,0,0,1-.53.36,5.18,5.18,0,0,1-1.12.46s-.05,0-.05,0S500.75,611.94,500.76,611.93Z" transform="translate(-441.42 -576.72)"/><path class="cls-1" d="M458.67,608.86a17.44,17.44,0,0,0,8,10.46c.37.23.75.44,1.14.64,5,2.61,11,2.51,16.44,1.34a62.88,62.88,0,0,0,13.61-5,3.21,3.21,0,0,0,1.82,3.34,7.16,7.16,0,0,0,4,.52c4.88-.5,9.05-2.59,13.38-4.78" transform="translate(-441.42 -576.72)"/><path class="cls-1" d="M522,614.92l-7.05,7.56s4.34-12.92,4.41-14.84" transform="translate(-441.42 -576.72)"/><path class="cls-1" d="M518.5,618.86s11.72,4.95,20.44-.85" transform="translate(-441.42 -576.72)"/><path class="cls-3" d="M555.29,617s-10,2.38-16.08.9" transform="translate(-441.42 -576.72)"/></svg>